<svg width="19" height="13" viewBox="0 0 19 13" fill="none" xmlns="http://www.w3.org/2000/svg">
<path d="M0.369318 6.94602V6.50568C0.764678 6.50568 1.04048 6.42282 1.19673 6.2571C1.35535 6.09138 1.43466 5.81439 1.43466 5.42614V4.28977C1.43466 3.96307 1.46544 3.68016 1.52699 3.44105C1.59091 3.20194 1.69389 3.00426 1.83594 2.84801C1.97798 2.69176 2.16738 2.57576 2.40412 2.5C2.64086 2.42424 2.93324 2.38636 3.28125 2.38636V3.08239C3.00663 3.08239 2.79001 3.125 2.63139 3.21023C2.47514 3.29545 2.36387 3.42803 2.29759 3.60795C2.23366 3.78551 2.2017 4.01278 2.2017 4.28977V5.71023C2.2017 5.89489 2.17685 6.06297 2.12713 6.21449C2.07978 6.366 1.991 6.49621 1.8608 6.60511C1.73059 6.71402 1.54474 6.79806 1.30327 6.85724C1.06416 6.91643 0.752841 6.94602 0.369318 6.94602ZM3.28125 11.4773C2.93324 11.4773 2.64086 11.4394 2.40412 11.3636C2.16738 11.2879 1.97798 11.1719 1.83594 11.0156C1.69389 10.8594 1.59091 10.6617 1.52699 10.4226C1.46544 10.1835 1.43466 9.90057 1.43466 9.57386V8.4375C1.43466 8.04924 1.35535 7.77225 1.19673 7.60653C1.04048 7.44081 0.764678 7.35795 0.369318 7.35795V6.91761C0.752841 6.91761 1.06416 6.94721 1.30327 7.00639C1.54474 7.06558 1.73059 7.14962 1.8608 7.25852C1.991 7.36742 2.07978 7.49763 2.12713 7.64915C2.17685 7.80066 2.2017 7.96875 2.2017 8.15341V9.57386C2.2017 9.85085 2.23366 10.0781 2.29759 10.2557C2.36387 10.4332 2.47514 10.5646 2.63139 10.6499C2.79001 10.7375 3.00663 10.7812 3.28125 10.7812V11.4773ZM0.369318 7.35795V6.50568H1.20739V7.35795H0.369318ZM17.9403 6.91761V7.35795C17.545 7.35795 17.268 7.44081 17.1094 7.60653C16.9531 7.77225 16.875 8.04924 16.875 8.4375V9.57386C16.875 9.90057 16.843 10.1835 16.7791 10.4226C16.7176 10.6617 16.6158 10.8594 16.4737 11.0156C16.3317 11.1719 16.1423 11.2879 15.9055 11.3636C15.6688 11.4394 15.3764 11.4773 15.0284 11.4773V10.7812C15.303 10.7812 15.5185 10.7375 15.6747 10.6499C15.8333 10.5646 15.9446 10.4332 16.0085 10.2557C16.0748 10.0781 16.108 9.85085 16.108 9.57386V8.15341C16.108 7.96875 16.1316 7.80066 16.179 7.64915C16.2287 7.49763 16.3187 7.36742 16.4489 7.25852C16.5791 7.14962 16.7637 7.06558 17.0028 7.00639C17.2443 6.94721 17.5568 6.91761 17.9403 6.91761ZM15.0284 2.38636C15.3764 2.38636 15.6688 2.42424 15.9055 2.5C16.1423 2.57576 16.3317 2.69176 16.4737 2.84801C16.6158 3.00426 16.7176 3.20194 16.7791 3.44105C16.843 3.68016 16.875 3.96307 16.875 4.28977V5.42614C16.875 5.81439 16.9531 6.09138 17.1094 6.2571C17.268 6.42282 17.545 6.50568 17.9403 6.50568V6.94602C17.5568 6.94602 17.2443 6.91643 17.0028 6.85724C16.7637 6.79806 16.5791 6.71402 16.4489 6.60511C16.3187 6.49621 16.2287 6.366 16.179 6.21449C16.1316 6.06297 16.108 5.89489 16.108 5.71023V4.28977C16.108 4.01278 16.0748 3.78551 16.0085 3.60795C15.9446 3.42803 15.8333 3.29545 15.6747 3.21023C15.5185 3.125 15.303 3.08239 15.0284 3.08239V2.38636ZM17.9403 6.50568V7.35795H17.1023V6.50568H17.9403Z" fill="#EE6EFF"/>
<path d="M4.39009 4.54545H5.22816V10.3977C5.22816 10.7339 5.17016 11.0251 5.05415 11.2713C4.94052 11.5175 4.7677 11.7081 4.53569 11.843C4.30605 11.978 4.01604 12.0455 3.66566 12.0455C3.63725 12.0455 3.60884 12.0455 3.58043 12.0455C3.55202 12.0455 3.52362 12.0455 3.49521 12.0455V11.2642C3.52362 11.2642 3.54966 11.2642 3.57333 11.2642C3.59701 11.2642 3.62305 11.2642 3.65146 11.2642C3.90714 11.2642 4.09416 11.1884 4.21254 11.0369C4.33091 10.8878 4.39009 10.6747 4.39009 10.3977V4.54545ZM4.80202 3.63636C4.63867 3.63636 4.49781 3.58073 4.37944 3.46946C4.26344 3.35819 4.20543 3.22443 4.20543 3.06818C4.20543 2.91193 4.26344 2.77817 4.37944 2.6669C4.49781 2.55563 4.63867 2.5 4.80202 2.5C4.96538 2.5 5.10505 2.55563 5.22106 2.6669C5.33943 2.77817 5.39862 2.91193 5.39862 3.06818C5.39862 3.22443 5.33943 3.35819 5.22106 3.46946C5.10505 3.58073 4.96538 3.63636 4.80202 3.63636ZM6.76314 10V4.54545H7.5728V5.39773H7.64382C7.75746 5.10653 7.94093 4.88045 8.19425 4.71946C8.44756 4.55611 8.75178 4.47443 9.10689 4.47443C9.46674 4.47443 9.76622 4.55611 10.0053 4.71946C10.2468 4.88045 10.435 5.10653 10.57 5.39773H10.6268C10.7665 5.116 10.976 4.89228 11.2553 4.72656C11.5347 4.55848 11.8697 4.47443 12.2603 4.47443C12.748 4.47443 13.1469 4.62713 13.457 4.93253C13.7672 5.23556 13.9222 5.70786 13.9222 6.34943V10H13.0842V6.34943C13.0842 5.94697 12.9741 5.65933 12.7539 5.48651C12.5337 5.31368 12.2745 5.22727 11.9762 5.22727C11.5927 5.22727 11.2956 5.34328 11.0849 5.57528C10.8742 5.80492 10.7688 6.09612 10.7688 6.44886V10H9.91655V6.2642C9.91655 5.95407 9.81593 5.70431 9.6147 5.51491C9.41347 5.32315 9.15424 5.22727 8.837 5.22727C8.6192 5.22727 8.4156 5.28527 8.22621 5.40128C8.03918 5.51728 7.88767 5.67827 7.77166 5.88423C7.65803 6.08783 7.60121 6.32339 7.60121 6.59091V10H6.76314Z" fill="#75C2FF"/>
</svg>
