<svg width="1336" height="668" viewBox="0 0 1336 668" fill="none" xmlns="http://www.w3.org/2000/svg">
<path d="M445.334 464.85V208.282H459.251V248.641C460.894 246.851 462.412 244.95 463.793 242.952C475.416 218.837 499.932 203.618 526.696 203.918C558.426 202.972 584.211 214.717 599.364 242.952C609.006 260.492 614.312 280.084 614.839 300.093C615.366 320.102 611.098 339.947 602.392 357.97C588.275 389.611 553.405 405.342 516.075 399.564C504.458 398.577 493.273 394.695 483.541 388.273C473.809 381.852 465.841 373.095 460.364 362.802V464.839L445.334 464.85ZM459.251 299.041L462.368 329.168C467.868 363.459 488.142 383.721 519.972 387.529C534.92 389.987 550.257 387.184 563.37 379.6C576.483 372.015 586.559 360.117 591.882 345.935C604.262 316.432 603.349 283.032 589.433 254.219C583.752 241.505 574.087 230.986 561.899 224.252C549.711 217.517 535.662 214.932 521.876 216.888C508.935 217.83 496.608 222.778 486.608 231.046C476.608 239.314 469.432 250.491 466.075 263.025C463.112 274.886 460.833 286.907 459.251 299.03V299.041ZM898.995 333.911C896.884 351.976 888.285 368.659 874.795 380.858C861.306 393.057 843.845 399.942 825.66 400.232C767.299 403.171 739.911 364.416 735.558 319.694C732.531 295.407 736.473 270.76 746.925 248.63C754.199 233.448 766.118 220.977 780.954 213.022C795.791 205.067 812.775 202.042 829.445 204.386C845.293 205.733 860.316 212.03 872.388 222.386C884.46 232.741 892.97 246.631 896.713 262.09C899.678 276.172 901.859 290.407 903.248 304.73H749.975C747.136 345.278 768.924 377.876 799.808 385.737C838.274 395.2 871.151 378.533 883.086 341.96C885.735 332.575 890.567 331.25 899.095 333.911H898.995ZM749.864 291.749H886.96C886.103 248.552 859.205 217.156 822.721 216.799C781.527 216.131 751.656 246.269 749.864 291.749ZM927.329 334.857H940.767C941.261 344.757 944.476 354.329 950.058 362.52C955.641 370.711 963.374 377.204 972.408 381.283C983.752 386.388 996.1 388.869 1008.54 388.541C1020.97 388.214 1033.17 385.086 1044.23 379.391C1050.26 376.676 1055.31 372.177 1058.7 366.5C1062.09 360.824 1063.65 354.244 1063.18 347.649C1063.53 341.29 1061.79 334.99 1058.23 329.706C1054.68 324.422 1049.49 320.442 1043.47 318.369C1028.69 312.869 1012.97 309.841 997.904 305.009C982.229 300.546 966.902 294.942 952.045 288.242C927.775 276.396 926.272 230.26 953.749 215.653C967.818 207.714 983.651 203.424 999.804 203.175C1015.96 202.926 1031.91 206.726 1046.22 214.228C1063.97 224.025 1073.78 243.809 1070.86 263.882H1059.34C1059.34 263.326 1058.29 262.836 1058.29 262.268C1056.87 225.528 1025.98 214.038 992.827 217.267C982.807 218.38 973.31 221.409 964.403 225.884C959.049 228.329 954.588 232.378 951.636 237.47C948.684 242.562 947.387 248.446 947.926 254.308C947.937 260.173 949.765 265.891 953.158 270.676C956.551 275.461 961.343 279.077 966.875 281.028C981.348 286.338 996.712 289.745 1011.69 293.909L1047.87 303.372C1056.09 306.072 1063.31 311.204 1068.55 318.09C1073.79 324.976 1076.82 333.292 1077.24 341.938C1080.13 361.366 1070.23 380.459 1052.7 389.31C1021.06 407.213 968.946 402.481 945.733 379.847C933.854 367.901 927.229 351.68 927.363 334.846L927.329 334.857ZM1247.75 263.893H1235.14C1235.14 262.19 1234.48 260.553 1234.29 259.251C1234.09 249.804 1230.64 240.713 1224.53 233.503C1218.43 226.293 1210.03 221.402 1200.74 219.65C1183.23 214.626 1164.54 215.526 1147.59 222.21C1140.89 224.128 1134.99 228.165 1130.77 233.716C1126.55 239.266 1124.24 246.033 1124.19 253.005C1123.95 259.85 1126.08 266.569 1130.22 272.024C1134.37 277.479 1140.26 281.336 1146.92 282.943L1204.53 297.728C1210.76 299.222 1216.89 301.088 1222.9 303.317C1241.27 309.997 1253.74 327.053 1254.29 346.547C1254.57 356.089 1251.95 365.492 1246.79 373.519C1241.62 381.547 1234.15 387.824 1225.35 391.526C1211.98 397.599 1197.49 400.812 1182.8 400.96C1168.12 401.108 1153.57 398.186 1140.08 392.383C1128.98 387.6 1119.62 379.532 1113.25 369.267C1106.88 359.002 1103.81 347.032 1104.45 334.969H1116.76C1121.39 357.291 1136.73 375.884 1157.76 384.679C1178.79 393.474 1202.8 391.314 1221.93 378.934C1227.67 375.95 1232.43 371.384 1235.65 365.776C1238.88 360.168 1240.43 353.754 1240.12 347.293C1240.41 340.929 1238.61 334.645 1235 329.395C1231.39 324.145 1226.17 320.216 1220.12 318.202C1205.34 312.702 1189.62 309.774 1174.56 304.842C1158.79 300.448 1143.37 294.907 1128.42 288.264C1104.73 276.608 1102.84 230.85 1129.84 216.254C1144.09 207.982 1160.23 203.538 1176.7 203.354C1193.17 203.171 1209.41 207.254 1223.83 215.207C1232.08 220.131 1238.72 227.348 1242.95 235.978C1247.17 244.608 1248.79 254.28 1247.61 263.815L1247.75 263.893ZM422.433 395.601C417.472 397.477 411.996 397.472 407.038 395.587C402.081 393.702 397.985 390.067 395.523 385.369L346.537 317.623L339.434 308.16L282.587 385.469C280.27 389.965 276.396 393.464 271.687 395.312C266.979 397.16 261.759 397.231 257.003 395.512L330.238 297.26L262.102 208.483C272.211 204.831 283.478 208.795 289.1 217.946L339.868 286.527L390.937 218.213C393.271 213.794 397.148 210.387 401.83 208.641C406.512 206.894 411.673 206.929 416.332 208.739L389.89 243.82L354.074 290.435C353.08 291.323 352.285 292.411 351.74 293.627C351.196 294.843 350.914 296.161 350.914 297.494C350.914 298.827 351.196 300.144 351.74 301.361C352.285 302.577 353.08 303.665 354.074 304.552L422.288 395.601H422.433ZM733.387 207.536V220.896C723.804 220.268 714.196 221.656 705.183 224.97C696.169 228.285 687.951 233.452 681.059 240.139C674.166 246.826 668.752 254.884 665.166 263.793C661.581 272.701 659.903 282.263 660.241 291.86C660.241 323.063 660.241 354.266 660.241 385.469V396.079H646.691V208.371H660.051V246.837C676.44 218.781 701.735 208.371 733.476 207.614L733.387 207.536ZM81.6414 296.035L87.6089 266.565C103.997 208.294 170.797 184.045 216.756 220.139C243.665 241.27 250.378 271.208 249.064 304.942H97.4619C95.0125 365.196 138.488 401.579 194.099 383.009C212.425 376.329 226.219 361.099 230.761 342.172C233.7 332.709 238.555 331.083 247.439 333.822C245.957 345.357 241.879 356.407 235.512 366.139C229.144 375.872 220.653 384.034 210.677 390.012C194.194 399.026 175.284 402.597 156.65 400.216C138.015 397.834 120.611 389.621 106.925 376.752C93.3871 361.533 85.2152 342.294 83.6231 321.976C83.6231 318.636 82.5098 315.519 81.7305 312.513C81.6563 306.894 81.6191 301.402 81.6191 296.035H81.6414ZM97.6511 291.961H234.747C233.89 248.284 206.324 217.3 169.561 217.011C128.635 216.454 99.3545 246.759 97.5509 291.771L97.6511 291.961Z" fill="white"/>
</svg>
