<svg width="256" height="294" viewBox="0 0 256 294" fill="none" xmlns="http://www.w3.org/2000/svg">
<g filter="url(#filter0_f_237_8)">
<path d="M245.125 249.359C245.125 266.714 192.508 280.856 127.585 280.856C62.6619 280.856 10.0439 266.806 10.0439 249.359C10.0439 232.003 62.6619 217.861 127.584 217.861C192.508 217.861 245.034 232.003 245.125 249.359Z" fill="black" fill-opacity="0.2"/>
</g>
<path d="M63.2129 215.474C51.8259 199.128 49.6219 145.868 76.1599 113.084C89.2919 97.383 92.6899 86.455 93.6999 71.67C94.4339 54.865 81.8539 4.81899 129.237 1.05399C177.264 -2.80301 174.601 44.58 174.325 69.65C174.142 90.77 189.845 102.8 200.68 119.33C220.607 149.633 218.954 201.791 196.915 230.075C168.999 265.429 145.124 250.093 129.237 251.379C99.4849 253.124 98.4749 268.919 63.2129 215.474V215.474Z" fill="black"/>
<path d="M179.1 122.451C187.365 130.073 208.761 164.141 174.876 185.446C162.939 192.884 185.529 221.167 196.364 207.485C215.557 182.875 203.344 143.572 191.773 129.522C184.059 119.605 172.122 115.748 179.101 122.452L179.1 122.451Z" fill="url(#paint0_linear_237_8)"/>
<path d="M176.805 117.86C190.395 128.88 215.097 167.447 179.009 192.608C167.163 200.414 189.477 225.116 202.058 212.535C245.676 168.641 200.956 118.227 185.528 100.871C171.754 85.72 159.541 104.361 176.805 117.86Z" fill="black" stroke="black" stroke-width="0.977"/>
<path d="M157.245 25.02C156.786 37.601 142.92 48.53 126.299 49.54C109.678 50.55 96.6389 41 97.0969 28.419C97.5569 15.838 111.423 4.91 128.044 3.9C144.664 2.982 157.704 12.44 157.245 25.02V25.02Z" fill="url(#paint1_linear_237_8)"/>
<path d="M117.483 54.957C117.943 63.13 114.086 70.017 108.76 70.292C103.434 70.568 98.75 64.232 98.291 56.059C97.832 47.886 101.689 40.999 107.015 40.724C112.341 40.448 117.025 46.784 117.483 54.957V54.957Z" fill="url(#paint2_linear_237_8)"/>
<path d="M127.125 55.6C127.309 65.058 133.462 72.588 140.808 72.405C148.154 72.221 153.939 64.415 153.756 54.865C153.572 45.407 147.42 37.877 140.073 38.061C132.727 38.244 126.85 46.141 127.125 55.6V55.6Z" fill="url(#paint3_linear_237_8)"/>
<path d="M133.186 57.712C133.094 62.946 135.666 67.17 139.063 67.17C142.369 67.17 145.216 62.946 145.308 57.804C145.399 52.57 142.828 48.345 139.43 48.345C136.033 48.345 133.278 52.57 133.186 57.712ZM111.974 57.804C112.433 62.12 110.78 65.793 108.392 66.16C106.005 66.436 103.709 63.222 103.25 58.906C102.79 54.59 104.444 50.916 106.831 50.549C109.219 50.274 111.515 53.488 111.974 57.804V57.804Z" fill="black"/>
<path d="M134.564 54.773C134.288 57.712 135.666 60.099 137.594 60.283C139.522 60.467 141.359 58.171 141.634 55.324C141.91 52.386 140.532 49.998 138.604 49.814C136.676 49.631 134.839 51.927 134.564 54.774V54.773Z" fill="url(#paint4_linear_237_8)"/>
<path d="M109.953 55.508C110.229 57.896 109.219 60.008 107.75 60.191C106.28 60.375 104.903 58.538 104.627 56.059C104.352 53.671 105.362 51.559 106.831 51.376C108.301 51.192 109.678 53.12 109.953 55.508V55.508Z" fill="url(#paint5_linear_237_8)"/>
<path d="M81.027 145.684C87.547 130.899 101.413 104.912 101.689 84.801C101.689 68.823 149.532 64.966 153.389 80.945C157.245 96.923 166.979 120.798 173.223 132.369C179.468 143.847 197.558 180.487 178.274 212.443C160.918 240.727 108.301 263.133 80.201 208.587C70.651 189.67 72.395 166.254 81.027 145.684Z" fill="url(#paint6_linear_237_8)"/>
<path d="M75.1499 134.664C69.5489 145.224 57.9779 172.957 86.2619 188.109C116.657 204.271 116.565 237.421 80.0169 221.626C46.5919 207.393 61.3759 149.724 70.7429 135.95C76.8029 126.308 85.9859 114.462 75.1499 134.664V134.664Z" fill="url(#paint7_linear_237_8)"/>
<path d="M79.925 122.727C71.018 137.236 49.714 171.396 78.273 189.211C116.657 212.811 105.821 236.319 70.743 215.106C21.339 185.538 64.773 125.849 84.517 103.076C107.107 77.547 88.833 107.759 79.925 122.726V122.727Z" fill="black" stroke="black" stroke-width="1.25"/>
<path d="M166.428 151.285C166.428 167.447 150.909 188.385 124.278 188.201C96.8219 188.384 85.1599 167.447 85.1599 151.285C85.1599 135.124 103.342 121.992 125.748 121.992C148.246 122.084 166.428 135.124 166.428 151.285Z" fill="url(#paint8_linear_237_8)"/>
<path d="M151.92 100.504C151.644 117.217 140.716 121.166 126.942 121.166C113.167 121.166 103.158 118.686 101.964 100.504C101.964 89.117 113.167 82.506 126.942 82.506C140.716 82.414 151.919 89.026 151.919 100.504H151.92Z" fill="url(#paint9_linear_237_8)"/>
<path d="M68.63 126.216C77.63 112.534 96.638 91.505 72.212 129.155C52.377 160.193 64.8659 180.12 71.2939 185.629C89.8429 202.159 89.108 213.269 74.508 204.546C43.194 185.905 49.714 154.499 68.63 126.216V126.216Z" fill="url(#paint10_linear_237_8)"/>
<path d="M198.936 131.818C191.13 115.748 166.336 74.976 200.129 122.359C230.892 165.243 209.312 195.088 205.455 198.026C201.599 200.965 188.651 206.934 192.415 196.557C196.273 186.18 215.373 166.529 198.935 131.817L198.936 131.818Z" fill="url(#paint11_linear_237_8)"/>
<path d="M61.8349 258.542C41.2649 247.614 11.4209 260.654 22.2569 231.085C24.4609 224.381 19.0429 214.28 22.5319 207.76C26.6649 199.771 35.5719 201.516 40.8979 196.19C46.1319 190.68 49.4379 181.13 59.2639 182.6C68.9979 184.068 75.5179 196.006 82.3129 210.699C87.3629 221.167 105.178 235.952 103.985 247.706C102.515 265.704 82.0369 269.102 61.8349 258.542V258.542Z" fill="url(#paint12_linear_237_8)" stroke="#E68C3F" stroke-width="6.25"/>
<path d="M211.608 189.119C208.486 194.996 195.446 204.454 186.722 201.975C177.907 199.587 173.866 186.18 175.611 175.987C177.264 164.601 186.722 163.957 198.661 169.651C211.516 175.987 215.373 181.313 211.608 189.119V189.119Z" fill="url(#paint13_linear_237_8)"/>
<path d="M204.445 253.49C219.505 235.217 253.023 238.982 230.433 213.913C225.658 208.495 227.127 196.924 221.25 191.966C214.363 185.905 206.741 190.864 199.762 187.742C192.783 184.344 185.437 177.824 176.897 182.415C168.357 187.099 167.438 199.22 166.612 215.198C165.877 226.677 155.409 245.869 161.01 256.429C169.091 272.775 190.12 270.571 204.445 253.491V253.49Z" fill="url(#paint14_linear_237_8)" stroke="#E68C3F" stroke-width="6.251"/>
<path d="M197.925 229.064C221.25 194.629 203.895 194.904 198.017 192.241C192.14 189.486 185.987 184.068 179.101 187.833C172.213 191.69 171.846 201.608 171.662 214.647C171.387 224.014 163.582 239.717 168.265 248.44C173.958 258.633 187.732 243.849 197.925 229.064V229.064Z" fill="url(#paint15_linear_237_8)"/>
<path d="M57.0599 234.023C22.1649 211.433 38.5099 203.72 43.7449 200.138C50.0809 195.547 50.1729 186.731 57.9779 187.558C65.7839 188.384 70.3749 198.026 75.6089 209.964C79.4659 218.504 92.8729 229.891 91.8629 239.717C90.5779 251.287 72.1199 243.665 57.0599 234.023V234.023Z" fill="url(#paint16_linear_237_8)"/>
<path d="M209.588 188.843C206.833 193.619 195.63 201.149 188.192 199.128C180.57 197.2 177.08 186.456 178.642 178.375C180.019 169.192 188.192 168.733 198.476 173.325C209.404 178.283 212.802 182.507 209.588 188.843Z" fill="black"/>
<path d="M202.058 186.18C200.313 189.486 192.967 194.72 187.824 193.343C182.682 191.966 180.111 184.528 180.937 178.926C181.672 172.59 187.181 172.222 194.16 175.345C201.69 178.835 204.078 181.773 202.058 186.18V186.18Z" fill="url(#paint17_linear_237_8)"/>
<path d="M107.107 66.344C110.78 62.946 119.687 52.57 136.584 63.405C139.706 65.425 142.277 65.609 148.246 68.18C160.276 73.14 154.582 85.077 141.726 89.117C136.216 90.862 131.258 97.566 121.34 96.923C112.8 96.463 110.596 90.863 105.362 87.832C96.0869 82.598 94.7099 75.527 99.7599 71.762C104.811 67.997 106.74 66.619 107.107 66.344Z" fill="url(#paint18_linear_237_8)" stroke="#E68C3F" stroke-width="3.75"/>
<path d="M148.43 75.986C143.38 76.261 132.451 87.189 120.973 87.189C109.494 87.189 102.607 76.537 100.863 76.537" stroke="#E68C3F" stroke-width="2.5"/>
<path d="M112.8 65.426C114.637 63.773 120.422 59.273 128.044 63.864C129.697 64.783 131.35 65.793 133.737 67.17C138.604 70.017 136.217 74.15 130.339 76.72C127.676 77.822 123.269 80.21 119.963 80.026C116.29 79.659 113.81 77.271 111.423 75.71C106.923 72.772 107.199 70.292 109.311 68.364C110.871 66.894 112.616 65.517 112.801 65.426H112.8Z" fill="url(#paint19_linear_237_8)"/>
<defs>
<filter id="filter0_f_237_8" x="-2.95605" y="204.861" width="261.081" height="88.995" filterUnits="userSpaceOnUse" color-interpolation-filters="sRGB">
<feFlood flood-opacity="0" result="BackgroundImageFix"/>
<feBlend mode="normal" in="SourceGraphic" in2="BackgroundImageFix" result="shape"/>
<feGaussianBlur stdDeviation="6.5" result="effect1_foregroundBlur_237_8"/>
</filter>
<linearGradient id="paint0_linear_237_8" x1="188.435" y1="225.234" x2="194.462" y2="157.643" gradientUnits="userSpaceOnUse">
<stop stop-color="#FFEED7"/>
<stop offset="1" stop-color="#BDBFC2"/>
</linearGradient>
<linearGradient id="paint1_linear_237_8" x1="129.823" y1="4.93887" x2="126.946" y2="45.4314" gradientUnits="userSpaceOnUse">
<stop stop-color="white" stop-opacity="0.8"/>
<stop offset="1" stop-color="white" stop-opacity="0"/>
</linearGradient>
<linearGradient id="paint2_linear_237_8" x1="108.245" y1="66.8238" x2="106.474" y2="43.6772" gradientUnits="userSpaceOnUse">
<stop stop-color="#FFEED7"/>
<stop offset="1" stop-color="#BDBFC2"/>
</linearGradient>
<linearGradient id="paint3_linear_237_8" x1="140.418" y1="67.424" x2="140.418" y2="42.8018" gradientUnits="userSpaceOnUse">
<stop stop-color="#FFEED7"/>
<stop offset="1" stop-color="#BDBFC2"/>
</linearGradient>
<linearGradient id="paint4_linear_237_8" x1="138.377" y1="50.1292" x2="137.164" y2="59.5699" gradientUnits="userSpaceOnUse">
<stop stop-color="white" stop-opacity="0.65"/>
<stop offset="1" stop-color="white" stop-opacity="0"/>
</linearGradient>
<linearGradient id="paint5_linear_237_8" x1="107.051" y1="51.8478" x2="108.358" y2="59.4934" gradientUnits="userSpaceOnUse">
<stop stop-color="white" stop-opacity="0.65"/>
<stop offset="1" stop-color="white" stop-opacity="0"/>
</linearGradient>
<linearGradient id="paint6_linear_237_8" x1="130.325" y1="224.565" x2="130.325" y2="140.294" gradientUnits="userSpaceOnUse">
<stop stop-color="#FFEED7"/>
<stop offset="1" stop-color="#BDBFC2"/>
</linearGradient>
<linearGradient id="paint7_linear_237_8" x1="85.5022" y1="225.759" x2="63.9925" y2="152.431" gradientUnits="userSpaceOnUse">
<stop stop-color="#FFEED7"/>
<stop offset="1" stop-color="#BDBFC2"/>
</linearGradient>
<linearGradient id="paint8_linear_237_8" x1="125.665" y1="130.751" x2="125.88" y2="184.676" gradientUnits="userSpaceOnUse">
<stop stop-color="white" stop-opacity="0.8"/>
<stop offset="1" stop-color="white" stop-opacity="0"/>
</linearGradient>
<linearGradient id="paint9_linear_237_8" x1="126.906" y1="96.936" x2="127.145" y2="118.377" gradientUnits="userSpaceOnUse">
<stop stop-color="white" stop-opacity="0.65"/>
<stop offset="1" stop-color="white" stop-opacity="0"/>
</linearGradient>
<linearGradient id="paint10_linear_237_8" x1="69.0001" y1="110.17" x2="69.0001" y2="188.855" gradientUnits="userSpaceOnUse">
<stop stop-color="white" stop-opacity="0.65"/>
<stop offset="1" stop-color="white" stop-opacity="0"/>
</linearGradient>
<linearGradient id="paint11_linear_237_8" x1="199.565" y1="102.484" x2="199.537" y2="173.58" gradientUnits="userSpaceOnUse">
<stop stop-color="white" stop-opacity="0.65"/>
<stop offset="1" stop-color="white" stop-opacity="0"/>
</linearGradient>
<linearGradient id="paint12_linear_237_8" x1="64.9146" y1="222.589" x2="53.2458" y2="263.096" gradientUnits="userSpaceOnUse">
<stop stop-color="#FFA63F"/>
<stop offset="1" stop-color="#FFFF00"/>
</linearGradient>
<linearGradient id="paint13_linear_237_8" x1="194.994" y1="217.966" x2="193.327" y2="142.72" gradientUnits="userSpaceOnUse">
<stop stop-color="#FFEED7"/>
<stop offset="1" stop-color="#BDBFC2"/>
</linearGradient>
<linearGradient id="paint14_linear_237_8" x1="183.425" y1="210.343" x2="215.198" y2="255.356" gradientUnits="userSpaceOnUse">
<stop stop-color="#FFA63F"/>
<stop offset="1" stop-color="#FFFF00"/>
</linearGradient>
<linearGradient id="paint15_linear_237_8" x1="192.378" y1="175.308" x2="181.519" y2="228.465" gradientUnits="userSpaceOnUse">
<stop stop-color="white" stop-opacity="0.65"/>
<stop offset="1" stop-color="white" stop-opacity="0"/>
</linearGradient>
<linearGradient id="paint16_linear_237_8" x1="62.3625" y1="188.412" x2="64.5085" y2="248.052" gradientUnits="userSpaceOnUse">
<stop stop-color="white" stop-opacity="0.65"/>
<stop offset="1" stop-color="white" stop-opacity="0"/>
</linearGradient>
<linearGradient id="paint17_linear_237_8" x1="190.348" y1="174.344" x2="192.862" y2="192.19" gradientUnits="userSpaceOnUse">
<stop stop-color="white" stop-opacity="0.65"/>
<stop offset="1" stop-color="white" stop-opacity="0"/>
</linearGradient>
<linearGradient id="paint18_linear_237_8" x1="125.71" y1="65.3513" x2="125.919" y2="96.7321" gradientUnits="userSpaceOnUse">
<stop stop-color="#FFA63F"/>
<stop offset="1" stop-color="#FFFF00"/>
</linearGradient>
<linearGradient id="paint19_linear_237_8" x1="122.143" y1="62.3836" x2="122.086" y2="78.9766" gradientUnits="userSpaceOnUse">
<stop stop-color="white" stop-opacity="0.65"/>
<stop offset="1" stop-color="white" stop-opacity="0"/>
</linearGradient>
</defs>
</svg>
