<svg width="235" height="155" viewBox="0 0 235 155" fill="none" xmlns="http://www.w3.org/2000/svg">
<path d="M4.72727 84.9091V79.2727C9.78788 79.2727 13.3182 78.2121 15.3182 76.0909C17.3485 73.9697 18.3636 70.4242 18.3636 65.4545V50.9091C18.3636 46.7273 18.7576 43.1061 19.5455 40.0454C20.3636 36.9848 21.6818 34.4545 23.5 32.4545C25.3182 30.4545 27.7424 28.9697 30.7727 28C33.803 27.0303 37.5455 26.5454 42 26.5454V35.4545C38.4848 35.4545 35.7121 36 33.6818 37.0909C31.6818 38.1818 30.2576 39.8788 29.4091 42.1818C28.5909 44.4545 28.1818 47.3636 28.1818 50.9091V69.0909C28.1818 71.4545 27.8636 73.6061 27.2273 75.5455C26.6212 77.4848 25.4848 79.1515 23.8182 80.5455C22.1515 81.9394 19.7727 83.0152 16.6818 83.7727C13.6212 84.5303 9.63636 84.9091 4.72727 84.9091ZM42 142.909C37.5455 142.909 33.803 142.424 30.7727 141.455C27.7424 140.485 25.3182 139 23.5 137C21.6818 135 20.3636 132.47 19.5455 129.409C18.7576 126.348 18.3636 122.727 18.3636 118.545V104C18.3636 99.0303 17.3485 95.4848 15.3182 93.3636C13.3182 91.2424 9.78788 90.1818 4.72727 90.1818V84.5455C9.63636 84.5455 13.6212 84.9242 16.6818 85.6818C19.7727 86.4394 22.1515 87.5151 23.8182 88.9091C25.4848 90.303 26.6212 91.9697 27.2273 93.9091C27.8636 95.8485 28.1818 98 28.1818 100.364V118.545C28.1818 122.091 28.5909 125 29.4091 127.273C30.2576 129.545 31.6818 131.227 33.6818 132.318C35.7121 133.439 38.4848 134 42 134V142.909ZM4.72727 90.1818V79.2727H15.4545V90.1818H4.72727ZM229.636 84.5455V90.1818C224.576 90.1818 221.03 91.2424 219 93.3636C217 95.4848 216 99.0303 216 104V118.545C216 122.727 215.591 126.348 214.773 129.409C213.985 132.47 212.682 135 210.864 137C209.045 139 206.621 140.485 203.591 141.455C200.561 142.424 196.818 142.909 192.364 142.909V134C195.879 134 198.636 133.439 200.636 132.318C202.667 131.227 204.091 129.545 204.909 127.273C205.758 125 206.182 122.091 206.182 118.545V100.364C206.182 98 206.485 95.8485 207.091 93.9091C207.727 91.9697 208.879 90.303 210.545 88.9091C212.212 87.5151 214.576 86.4394 217.636 85.6818C220.727 84.9242 224.727 84.5455 229.636 84.5455ZM192.364 26.5454C196.818 26.5454 200.561 27.0303 203.591 28C206.621 28.9697 209.045 30.4545 210.864 32.4545C212.682 34.4545 213.985 36.9848 214.773 40.0454C215.591 43.1061 216 46.7273 216 50.9091V65.4545C216 70.4242 217 73.9697 219 76.0909C221.03 78.2121 224.576 79.2727 229.636 79.2727V84.9091C224.727 84.9091 220.727 84.5303 217.636 83.7727C214.576 83.0152 212.212 81.9394 210.545 80.5455C208.879 79.1515 207.727 77.4848 207.091 75.5455C206.485 73.6061 206.182 71.4545 206.182 69.0909V50.9091C206.182 47.3636 205.758 44.4545 204.909 42.1818C204.091 39.8788 202.667 38.1818 200.636 37.0909C198.636 36 195.879 35.4545 192.364 35.4545V26.5454ZM229.636 79.2727V90.1818H218.909V79.2727H229.636Z" fill="#EE6EFF"/>
<path d="M56.1932 54.1818H66.9205V129.091C66.9205 133.394 66.178 137.121 64.6932 140.273C63.2386 143.424 61.0265 145.864 58.0568 147.591C55.1174 149.318 51.4053 150.182 46.9205 150.182C46.5568 150.182 46.1932 150.182 45.8295 150.182C45.4659 150.182 45.1023 150.182 44.7386 150.182V140.182C45.1023 140.182 45.4356 140.182 45.7386 140.182C46.0417 140.182 46.375 140.182 46.7386 140.182C50.0114 140.182 52.4053 139.212 53.9205 137.273C55.4356 135.364 56.1932 132.636 56.1932 129.091V54.1818ZM61.4659 42.5455C59.375 42.5455 57.572 41.8333 56.0568 40.4091C54.572 38.9848 53.8295 37.2727 53.8295 35.2727C53.8295 33.2727 54.572 31.5606 56.0568 30.1364C57.572 28.7121 59.375 28 61.4659 28C63.5568 28 65.3447 28.7121 66.8295 30.1364C68.3447 31.5606 69.1023 33.2727 69.1023 35.2727C69.1023 37.2727 68.3447 38.9848 66.8295 40.4091C65.3447 41.8333 63.5568 42.5455 61.4659 42.5455ZM86.5682 124V54.1818H96.9318V65.0909H97.8409C99.2955 61.3636 101.644 58.4697 104.886 56.4091C108.129 54.3182 112.023 53.2727 116.568 53.2727C121.174 53.2727 125.008 54.3182 128.068 56.4091C131.159 58.4697 133.568 61.3636 135.295 65.0909H136.023C137.811 61.4848 140.492 58.6212 144.068 56.5C147.644 54.3485 151.932 53.2727 156.932 53.2727C163.174 53.2727 168.28 55.2273 172.25 59.1364C176.22 63.0151 178.205 69.0606 178.205 77.2727V124H167.477V77.2727C167.477 72.1212 166.068 68.4394 163.25 66.2273C160.432 64.0151 157.114 62.9091 153.295 62.9091C148.386 62.9091 144.583 64.3939 141.886 67.3636C139.189 70.303 137.841 74.0303 137.841 78.5455V124H126.932V76.1818C126.932 72.2121 125.644 69.0152 123.068 66.5909C120.492 64.1364 117.174 62.9091 113.114 62.9091C110.326 62.9091 107.72 63.6515 105.295 65.1364C102.902 66.6212 100.962 68.6818 99.4773 71.3182C98.0227 73.9242 97.2955 76.9394 97.2955 80.3636V124H86.5682Z" fill="#75C2FF"/>
</svg>
