<svg width="86" height="47" viewBox="0 0 86 47" fill="none" xmlns="http://www.w3.org/2000/svg">
<path d="M0.772727 22.3409V20.2273C2.67045 20.2273 3.99432 19.8295 4.74432 19.0341C5.50568 18.2386 5.88636 16.9091 5.88636 15.0455V9.59091C5.88636 8.02273 6.03409 6.66477 6.32955 5.51704C6.63636 4.36932 7.13068 3.42045 7.8125 2.67045C8.49432 1.92045 9.40341 1.36364 10.5398 1C11.6761 0.636362 13.0795 0.454543 14.75 0.454543V3.79545C13.4318 3.79545 12.392 4 11.6307 4.40909C10.8807 4.81818 10.3466 5.45455 10.0284 6.31818C9.72159 7.17045 9.56818 8.26136 9.56818 9.59091V16.4091C9.56818 17.2955 9.44886 18.1023 9.21023 18.8295C8.98295 19.5568 8.55682 20.1818 7.93182 20.7045C7.30682 21.2273 6.41477 21.6307 5.25568 21.9148C4.10795 22.1989 2.61364 22.3409 0.772727 22.3409ZM14.75 44.0909C13.0795 44.0909 11.6761 43.9091 10.5398 43.5455C9.40341 43.1818 8.49432 42.625 7.8125 41.875C7.13068 41.125 6.63636 40.1761 6.32955 39.0284C6.03409 37.8807 5.88636 36.5227 5.88636 34.9545V29.5C5.88636 27.6364 5.50568 26.3068 4.74432 25.5114C3.99432 24.7159 2.67045 24.3182 0.772727 24.3182V22.2045C2.61364 22.2045 4.10795 22.3466 5.25568 22.6307C6.41477 22.9148 7.30682 23.3182 7.93182 23.8409C8.55682 24.3636 8.98295 24.9886 9.21023 25.7159C9.44886 26.4432 9.56818 27.25 9.56818 28.1364V34.9545C9.56818 36.2841 9.72159 37.375 10.0284 38.2273C10.3466 39.0795 10.8807 39.7102 11.6307 40.1193C12.392 40.5398 13.4318 40.75 14.75 40.75V44.0909ZM0.772727 24.3182V20.2273H4.79545V24.3182H0.772727ZM85.1136 22.2045V24.3182C83.2159 24.3182 81.8864 24.7159 81.125 25.5114C80.375 26.3068 80 27.6364 80 29.5V34.9545C80 36.5227 79.8466 37.8807 79.5398 39.0284C79.2443 40.1761 78.7557 41.125 78.0739 41.875C77.392 42.625 76.483 43.1818 75.3466 43.5455C74.2102 43.9091 72.8068 44.0909 71.1364 44.0909V40.75C72.4545 40.75 73.4886 40.5398 74.2386 40.1193C75 39.7102 75.5341 39.0795 75.8409 38.2273C76.1591 37.375 76.3182 36.2841 76.3182 34.9545V28.1364C76.3182 27.25 76.4318 26.4432 76.6591 25.7159C76.8977 24.9886 77.3295 24.3636 77.9545 23.8409C78.5795 23.3182 79.4659 22.9148 80.6136 22.6307C81.7727 22.3466 83.2727 22.2045 85.1136 22.2045ZM71.1364 0.454543C72.8068 0.454543 74.2102 0.636362 75.3466 1C76.483 1.36364 77.392 1.92045 78.0739 2.67045C78.7557 3.42045 79.2443 4.36932 79.5398 5.51704C79.8466 6.66477 80 8.02273 80 9.59091V15.0455C80 16.9091 80.375 18.2386 81.125 19.0341C81.8864 19.8295 83.2159 20.2273 85.1136 20.2273V22.3409C83.2727 22.3409 81.7727 22.1989 80.6136 21.9148C79.4659 21.6307 78.5795 21.2273 77.9545 20.7045C77.3295 20.1818 76.8977 19.5568 76.6591 18.8295C76.4318 18.1023 76.3182 17.2955 76.3182 16.4091V9.59091C76.3182 8.26136 76.1591 7.17045 75.8409 6.31818C75.5341 5.45455 75 4.81818 74.2386 4.40909C73.4886 4 72.4545 3.79545 71.1364 3.79545V0.454543ZM85.1136 20.2273V24.3182H81.0909V20.2273H85.1136Z" fill="#EE6EFF"/>
<path d="M20.0724 10.8182H24.0952V38.9091C24.0952 40.5227 23.8168 41.9205 23.2599 43.1023C22.7145 44.2841 21.8849 45.1989 20.7713 45.8466C19.669 46.4943 18.277 46.8182 16.5952 46.8182C16.4588 46.8182 16.3224 46.8182 16.1861 46.8182C16.0497 46.8182 15.9134 46.8182 15.777 46.8182V43.0682C15.9134 43.0682 16.0384 43.0682 16.152 43.0682C16.2656 43.0682 16.3906 43.0682 16.527 43.0682C17.7543 43.0682 18.652 42.7045 19.2202 41.9773C19.7884 41.2614 20.0724 40.2386 20.0724 38.9091V10.8182ZM22.0497 6.45455C21.2656 6.45455 20.5895 6.1875 20.0213 5.65341C19.4645 5.11932 19.1861 4.47727 19.1861 3.72727C19.1861 2.97727 19.4645 2.33523 20.0213 1.80114C20.5895 1.26705 21.2656 1 22.0497 1C22.8338 1 23.5043 1.26705 24.0611 1.80114C24.6293 2.33523 24.9134 2.97727 24.9134 3.72727C24.9134 4.47727 24.6293 5.11932 24.0611 5.65341C23.5043 6.1875 22.8338 6.45455 22.0497 6.45455ZM31.4631 37V10.8182H35.3494V14.9091H35.6903C36.2358 13.5114 37.1165 12.4261 38.3324 11.6534C39.5483 10.8693 41.0085 10.4773 42.7131 10.4773C44.4403 10.4773 45.8778 10.8693 47.0256 11.6534C48.1847 12.4261 49.0881 13.5114 49.7358 14.9091H50.0085C50.679 13.5568 51.6847 12.483 53.0256 11.6875C54.3665 10.8807 55.9744 10.4773 57.8494 10.4773C60.1903 10.4773 62.1051 11.2102 63.5938 12.6761C65.0824 14.1307 65.8267 16.3977 65.8267 19.4773V37H61.804V19.4773C61.804 17.5455 61.2756 16.1648 60.2188 15.3352C59.1619 14.5057 57.9176 14.0909 56.4858 14.0909C54.6449 14.0909 53.2188 14.6477 52.2074 15.7614C51.196 16.8636 50.6903 18.2614 50.6903 19.9545V37H46.5994V19.0682C46.5994 17.5795 46.1165 16.3807 45.1506 15.4716C44.1847 14.5511 42.9403 14.0909 41.4176 14.0909C40.3722 14.0909 39.3949 14.3693 38.4858 14.9261C37.5881 15.483 36.8608 16.2557 36.304 17.2443C35.7585 18.2216 35.4858 19.3523 35.4858 20.6364V37H31.4631Z" fill="#75C2FF"/>
</svg>
